/* XPM */
static char *geist_rot[] = {
/* columns rows colors chars-per-pixel */
"64 64 4 1 ",
"  c None",
". c black",
"X c #FABF3F",
"o c white",
/* pixels */
"                           ...........                          ",
"                       ...................                      ",
"                    ........XXXXXXXXX........                   ",
"                  ......XXXXXXXXXXXXXXXXX......                 ",
"                .....XXXXXXXXXXXXXXXXXXXXXXX.....               ",
"               ....XXXXXXXXXXXXXXXXXXXXXXXXXXX....              ",
"             ....XXXXXXXXXXXXXXXXXXXXXXXXXXXXXXX....            ",
"            ....XXXXXXXXXXXXXXXXXXXXXXXXXXXXXXXXX....           ",
"           ...XXXXXXXXXXXXXXXXXXXXXXXXXXXXXXXXXXXXX...          ",
"          ...XXXXXXXXXXXXXXXXXXXXXXXXXXXXXXXXXXXXXXX...         ",
"         ...XXXXXXXXXXXXXXXXXXXXXXXXXXXXXXXXXXXXXXXXX...        ",
"        ...XXXXXXXXXXXXXXXXXXXXXXXXXXXXXXXXXXXXXXXXXXX...       ",
"        ..XXXXXXXXXXXXXXXXXXXXXXXXXXXXXXXXXXXXXXXXXXXXX..       ",
"       ...XXXXXXXXXXXX....XXXXXXXXXXXXXXXXXXXXXXXXXXXXX...      ",
"      ...XXXXXXXXXXX........XXXXXXXXXXXXXX......XXXXXXXX...     ",
"      ..XXXXXXXXXXX....oo....XXXXXXXXXXXX........XXXXXXXX..     ",
"     ...XXXXXXXXXX...oooooo...XXXXXXXXXX...oooo...XXXXXXX...    ",
"    ...XXXXXXXXXX...oooooooo...XXXXXXXX...oooooo...XXXXXXX...   ",
"    ..XXXXXXXXXXX..oooooooooo..XXXXXXX...oooooooo...XXXXXXX..   ",
"    ..XXXXXXXXXXX..oooooooooo..XXXXXXX..oooooooooo..XXXXXXX..   ",
"   ...XXXXXXXXXX...oooooooooo...XXXXX...oooooooooo...XXXXXX...  ",
"   ..XXXXXXXXXXX..oooooooooooo..XXXXX..oooooooooooo..XXXXXXX..  ",
"  ...XXXXXXXXXXX..oooooooooooo..XXXXX..oooooooooooo..XXXXXXX... ",
"  ..XXXXXXXXXXXX..ooooo....ooo..XXXXX..ooo....ooooo..XXXXXXXX.. ",
"  ..XXXXXXXXXXXX..oooo......oo..XXXXX..oo......oooo..XXXXXXXX.. ",
"  ..XXXXXXXXXXXX...ooo......o...XXXXX..oo......oooo..XXXXXXXX.. ",
" ...XXXXXXXXXXXXX..ooo......o..XXXXXX...o......ooo...XXXXXXXX...",
" ..XXXXXXXXXXXXXX..ooo......o..XXXXXXX..o......ooo..XXXXXXXXXX..",
" ..XXXXXXXXXXXXXX...ooo....o...XXXXXXX...o....ooo...XXXXXXXXXX..",
" ..XXXXXXXXXXXXXXX...oooooo...XXXXXXXXX...oooooo...XXXXXXXXXXX..",
" ..XXXXXXXXXXXXXXXX....oo....XXXXXXXXXXX...oooo...XXXXXXXXXXXX..",
" ..XXXXXXXXXXXXXXXXX........XXXXXXXXXXXXX........XXXXXXXXXXXXX..",
" ..XXXXXXXXXXXXXXXXXXX....XXXXXXXXXXXXXXXX......XXXXXXXXXXXXXX..",
" ..XXXXXXXXXXXXXXXXXXXXXXXXXXXXXXXXXXXXXXXXXXXXXXXXXXXXXXXXXXX..",
" ..XXXXXXXXXXXXXXXXXXXXXXXXXXXXXXXXXXXXXXXXXXXXXXXXXXXXXXXXXXX..",
" ..XXXXXXXXXXXXXXXXXXXXXXXXXXXXXXXXXXXXXXXXXXXXXXXXXXXXXXXXXXX..",
" ..XXXXXXXXXXXXXXXXXXXXXXXXXXXXXXXXXXXXXXXXXXXXXXXXXXXXXXXXXXX..",
" ..XXXXXXXXXXXXXXXXXXXXXXXXXXXXXXXXXXXXXXXXXXXXXXXXXXXXXXXXXXX..",
" ..XXXXXXXXXXXXXXXXXXXXXXXXXXXXXXXXXXXXXXXXXXXXXXXXXXXXXXXXXXX..",
" ..XXXXXXXXXXXXXXXXXXXXXXXXXXXXXXXXXXXXXXXXXXXXXXXXXXXXXXXXXXX..",
" ..XXXXXXXXXXXXXXXXXXXXXXXXXXXXXXXXXXXXXXXXXXXXXXXXXXXXXXXXXXX..",
" ..XXXXXXXXXXXXXXXXXXXXXXXXXXXXXXXXXXXXXXXXXXXXXXXXXXXXXXXXXXX..",
" ..XXXXXXXXXXXXXXXXXXXXXXXXXXXXXXXXXXXXXXXXXXXXXXXXXXXXXXXXXXX..",
" ..XXXXXXXXXXXXXXXXXXXXXXXXXXXXXXXXXXXXXXXXXXXXXXXXXXXXXXXXXXX..",
" ..XXXXXXXXXXXXXXXXXXXXXXXXXXXXXXXXXXXXXXXXXXXXXXXXXXXXXXXXXXX..",
" ..XXXXXXXXXXXXXXXXXXXXXXXXXXXXXXXXXXXXXXXXXXXXXXXXXXXXXXXXXXX..",
" ..XXXXXXXXXXXXXXXXXXXXXXXXXXXXXXXXXXXXXXXXXXXXXXXXXXXXXXXXXXX..",
" ..XXXXXXXXXXXXXXXXXXXXXXXXXXXXXXXXXXXXXXXXXXXXXXXXXXXXXXXXXXX..",
" ..XXXXXXXXXXXXXXXXXXXXXXXXXXXXXXXXXXXXXXXXXXXXXXXXXXXXXXXXXXX..",
" ..XXXXXXXXXXXXXXXXXXXXXXXXXXXXXXXXXXXXXXXXXXXXXXXXXXXXXXXXXXX..",
" ..XXXXXXXXXXXXXXXXXXXXXXXXXXXXXXXXXXXXXXXXXXXXXXXXXXXXXXXXXXX..",
" ..XXXXXXXXXXXXXXXXXXXXXXXXXXXXXXXXXXXXXXXXXXXXXXXXXXXXXXXXXXX..",
" ..XXXXXXXXXXXXXXXXXXXXXXXXXXXXXXXXXXXXXXXXXXXXXXXXXXXXXXXXXXX..",
" ..XXXXXXXXXXXXXXXXXXXXXXXXXXXXXXXXXXXXXXXXXXXXXXXXXXXXXXXXXXX..",
" ..XXXXXXXXXXXXXXXXXXXXXXXXXXXXXXXXXXXXXXXXXXXXXXXXXXXXXXXXXXX..",
" ..XXXXXXX.........XXXXXXXXXXXXXXXXXX....XXXXXXXXXXXXXXXXXXXXX..",
" ..XXXXXX............XXXXXXXXXXXXX.........XXXX......XXXXXXXXX..",
" ..XXXX.................XXXXXXXX............XX.........XXXXXXX..",
" ..XXX......     .........XXXX............................XXXX..",
" ..XXX.....        .................    ...................XXX..",
" ........            ..............     ........     ........X..",
" ........              ..........           ....       .........",
" ......                                                  .......",
"                                                          ......"
};
